<?xml version="1.0" standalone="no"?>
<!DOCTYPE svg PUBLIC "-//W3C//DTD SVG 20010904//EN"
 "http://www.w3.org/TR/2001/REC-SVG-20010904/DTD/svg10.dtd">
<svg version="1.0" xmlns="http://www.w3.org/2000/svg"
 width="700.000000pt" height="700.000000pt" viewBox="0 0 700.000000 700.000000"
 preserveAspectRatio="xMidYMid meet">
<metadata>
Created by potrace 1.14, written by Peter Selinger 2001-2017
</metadata>
<g transform="translate(0.000000,700.000000) scale(0.100000,-0.100000)"
fill="#000000" stroke="none">
<path d="M3410 6405 c-123 -33 -210 -113 -256 -236 -15 -40 -17 -134 -18 -941
-1 -493 -3 -898 -6 -900 -6 -5 -178 -106 -230 -136 -19 -11 -96 -55 -170 -99
-74 -44 -355 -209 -625 -368 -269 -158 -501 -295 -515 -304 -14 -8 -34 -21
-45 -27 -34 -18 -950 -557 -955 -561 -7 -7 -8 -423 0 -423 3 0 267 77 585 171
319 93 587 172 595 174 8 2 123 36 255 75 132 40 254 76 270 80 17 5 208 60
424 124 217 64 400 116 406 116 7 0 10 -280 10 -912 l0 -912 -292 -219 -293
-219 0 -149 c0 -115 3 -149 13 -149 7 0 148 38 312 86 165 47 309 87 319 89
11 3 40 11 65 19 25 7 89 26 142 41 114 32 37 47 619 -119 223 -64 411 -116
418 -116 9 0 12 37 12 149 l0 150 -187 140 c-104 77 -199 148 -212 158 -13 10
-60 45 -105 79 l-81 61 0 911 c0 719 3 912 12 912 7 0 52 -12 100 -26 49 -14
162 -48 253 -74 91 -27 228 -67 305 -90 77 -23 156 -46 175 -52 19 -5 172 -50
340 -100 168 -49 458 -134 645 -189 187 -55 383 -113 435 -128 100 -31 276
-81 283 -81 2 0 3 95 3 210 l-1 211 -65 38 c-398 233 -761 447 -785 465 -16
11 -32 20 -35 20 -3 -1 -21 9 -40 21 -19 12 -55 33 -80 47 -25 14 -130 76
-235 138 -271 160 -639 377 -773 455 -10 6 -134 79 -277 163 l-260 153 0 867
c1 906 -1 949 -43 1027 -76 144 -256 222 -412 180z"/>
</g>
</svg>
